<svg width="50" height="50" viewBox="0 0 50 50" fill="none" xmlns="http://www.w3.org/2000/svg">
<path d="M50 2.52512L47.475 0.00012207L0 47.4751L2.525 50.0001L6.09643 46.4287H42.8571C43.8039 46.4273 44.7115 46.0506 45.381 45.3811C46.0504 44.7116 46.4272 43.804 46.4286 42.8573V6.09655L50 2.52512ZM42.8571 42.8573H9.66786L23.5839 28.9412L27.8321 33.1894C28.5019 33.859 29.4101 34.2351 30.3571 34.2351C31.3042 34.2351 32.2124 33.859 32.8821 33.1894L35.7143 30.3573L42.8571 37.4948V42.8573ZM42.8571 32.443L38.2393 27.8251C37.5695 27.1556 36.6613 26.7795 35.7143 26.7795C34.7673 26.7795 33.859 27.1556 33.1893 27.8251L30.3571 30.6573L26.1125 26.4126L42.8571 9.66798V32.443ZM7.14286 35.7144V30.3573L16.0714 21.4341L18.5232 23.8876L21.0518 21.3591L18.5964 18.9037C17.9267 18.2342 17.0184 17.858 16.0714 17.858C15.1244 17.858 14.2162 18.2342 13.5464 18.9037L7.14286 25.3073V7.14298H35.7143V3.57155H7.14286C6.19595 3.5725 5.28809 3.94907 4.61852 4.61864C3.94895 5.28821 3.57237 6.19607 3.57143 7.14298V35.7144H7.14286Z" fill="white"/>
</svg>
